<?xml version="1.0" encoding="UTF-8" standalone="no"?>
<!-- Created with Inkscape (http://www.inkscape.org/) -->

<svg
   xmlns:dc="http://purl.org/dc/elements/1.1/"
   xmlns:cc="http://creativecommons.org/ns#"
   xmlns:rdf="http://www.w3.org/1999/02/22-rdf-syntax-ns#"
   xmlns:svg="http://www.w3.org/2000/svg"
   xmlns="http://www.w3.org/2000/svg"
   xmlns:sodipodi="http://sodipodi.sourceforge.net/DTD/sodipodi-0.dtd"
   xmlns:inkscape="http://www.inkscape.org/namespaces/inkscape"
   width="64px"
   height="64px"
   id="svg2985"
   version="1.1"
   inkscape:version="0.48.5 r10040"
   sodipodi:docname="pianofish.svg">
  <defs
     id="defs2987" />
  <sodipodi:namedview
     id="base"
     pagecolor="#ffffff"
     bordercolor="#666666"
     borderopacity="1.0"
     inkscape:pageopacity="0.0"
     inkscape:pageshadow="2"
     inkscape:zoom="12.609375"
     inkscape:cx="32"
     inkscape:cy="32"
     inkscape:current-layer="layer1"
     showgrid="true"
     inkscape:document-units="px"
     inkscape:grid-bbox="true"
     inkscape:snap-grids="true"
     inkscape:snap-to-guides="false"
     inkscape:window-width="1280"
     inkscape:window-height="990"
     inkscape:window-x="3200"
     inkscape:window-y="0"
     inkscape:window-maximized="1">
    <inkscape:grid
       type="xygrid"
       id="grid3775" />
  </sodipodi:namedview>
  <metadata
     id="metadata2990">
    <rdf:RDF>
      <cc:Work
         rdf:about="">
        <dc:format>image/svg+xml</dc:format>
        <dc:type
           rdf:resource="http://purl.org/dc/dcmitype/StillImage" />
        <dc:title />
      </cc:Work>
    </rdf:RDF>
  </metadata>
  <g
     id="layer1"
     inkscape:label="Layer 1"
     inkscape:groupmode="layer">
    <path
       style="fill:none;stroke:#000000;stroke-width:2;stroke-linecap:butt;stroke-linejoin:miter;stroke-opacity:1;stroke-miterlimit:4;stroke-dasharray:none"
       d="m 22,2 0,60"
       id="path3787"
       inkscape:connector-curvature="0" />
    <path
       style="fill:none;stroke:#000000;stroke-width:2;stroke-linecap:butt;stroke-linejoin:miter;stroke-opacity:1;stroke-miterlimit:4;stroke-dasharray:none"
       d="m 42,2 0,60"
       id="path3789"
       inkscape:connector-curvature="0" />
    <path
       style="fill:none;stroke:#000000;stroke-width:2;stroke-linecap:butt;stroke-linejoin:miter;stroke-opacity:1;stroke-miterlimit:4;stroke-dasharray:none"
       d="M 62,2 62,62 2,62 2,2 z"
       id="path3791"
       inkscape:connector-curvature="0" />
    <g
       id="g3807"
       transform="matrix(0.69066668,0,0,1.0597015,26.661333,-1.2089552)">
      <path
         style="fill:#000000;fill-opacity:1;stroke:#000000;stroke-width:1px;stroke-linecap:butt;stroke-linejoin:miter;stroke-opacity:1"
         d="m 22,37 c 0,0 -1.346948,-0.134044 -2,0 -2.486747,0.510424 -7,3 -7,3 0,0 5.180367,-3.292935 6,-6 0.985077,-3.253487 -1.753728,-8.813372 -3,-13 -1.24627,-4.186629 -1,-7 -1,-7 l -2,0 2,-1 c 0,0 0.735039,-4.0535258 2,-6 1.155936,-1.7787106 4.5,-3.5 4.5,-3.5 z"
         id="path3809"
         inkscape:connector-curvature="0"
         sodipodi:nodetypes="cscsscccscc" />
      <path
         sodipodi:nodetypes="cscsscccscc"
         inkscape:connector-curvature="0"
         id="path3811"
         d="m 22,37 c 0,0 1.346948,-0.134044 2,0 2.486747,0.510424 7,3 7,3 0,0 -5.180367,-3.292935 -6,-6 -0.985077,-3.253487 1.753728,-8.813372 3,-13 1.24627,-4.186629 1,-7 1,-7 l 2,0 -2,-1 C 29,13 28.264961,8.9464742 27,7 25.844064,5.2212894 22.5,3.5 22.5,3.5 z"
         style="fill:#000000;fill-opacity:1;stroke:#000000;stroke-width:1px;stroke-linecap:butt;stroke-linejoin:miter;stroke-opacity:1" />
    </g>
    <g
       transform="matrix(0.69066668,0,0,1.0597015,26.661333,-1.2089552)"
       id="g3813">
      <path
         sodipodi:nodetypes="cscsscccscc"
         inkscape:connector-curvature="0"
         id="path3815"
         d="m 22,37 c 0,0 -1.346948,-0.134044 -2,0 -2.486747,0.510424 -7,3 -7,3 0,0 5.180367,-3.292935 6,-6 0.985077,-3.253487 -1.753728,-8.813372 -3,-13 -1.24627,-4.186629 -1,-7 -1,-7 l -2,0 2,-1 c 0,0 0.735039,-4.0535258 2,-6 1.155936,-1.7787106 4.5,-3.5 4.5,-3.5 z"
         style="fill:#000000;fill-opacity:1;stroke:#000000;stroke-width:1px;stroke-linecap:butt;stroke-linejoin:miter;stroke-opacity:1" />
      <path
         style="fill:#000000;fill-opacity:1;stroke:#000000;stroke-width:1px;stroke-linecap:butt;stroke-linejoin:miter;stroke-opacity:1"
         d="m 22,37 c 0,0 1.346948,-0.134044 2,0 2.486747,0.510424 7,3 7,3 0,0 -5.180367,-3.292935 -6,-6 -0.985077,-3.253487 1.753728,-8.813372 3,-13 1.24627,-4.186629 1,-7 1,-7 l 2,0 -2,-1 C 29,13 28.264961,8.9464742 27,7 25.844064,5.2212894 22.5,3.5 22.5,3.5 z"
         id="path3817"
         inkscape:connector-curvature="0"
         sodipodi:nodetypes="cscsscccscc" />
    </g>
    <g
       id="g3831"
       transform="matrix(0.69066668,0,0,1.0597015,6.9493331,-1.2537315)">
      <path
         style="fill:#000000;fill-opacity:1;stroke:#000000;stroke-width:1px;stroke-linecap:butt;stroke-linejoin:miter;stroke-opacity:1"
         d="m 22,37 c 0,0 -1.346948,-0.134044 -2,0 -2.486747,0.510424 -7,3 -7,3 0,0 5.180367,-3.292935 6,-6 0.985077,-3.253487 -1.753728,-8.813372 -3,-13 -1.24627,-4.186629 -1,-7 -1,-7 l -2,0 2,-1 c 0,0 0.735039,-4.0535258 2,-6 1.155936,-1.7787106 4.5,-3.5 4.5,-3.5 z"
         id="path3833"
         inkscape:connector-curvature="0"
         sodipodi:nodetypes="cscsscccscc" />
      <path
         sodipodi:nodetypes="cscsscccscc"
         inkscape:connector-curvature="0"
         id="path3835"
         d="m 22,37 c 0,0 1.346948,-0.134044 2,0 2.486747,0.510424 7,3 7,3 0,0 -5.180367,-3.292935 -6,-6 -0.985077,-3.253487 1.753728,-8.813372 3,-13 1.24627,-4.186629 1,-7 1,-7 l 2,0 -2,-1 C 29,13 28.264961,8.9464742 27,7 25.844064,5.2212894 22.5,3.5 22.5,3.5 z"
         style="fill:#000000;fill-opacity:1;stroke:#000000;stroke-width:1px;stroke-linecap:butt;stroke-linejoin:miter;stroke-opacity:1" />
    </g>
    <path
       style="fill:#eeeeec;fill-opacity:1;fill-rule:nonzero;stroke:#555753;stroke-width:0.23791821;stroke-linecap:round;stroke-miterlimit:4;stroke-opacity:1;stroke-dasharray:none;stroke-dashoffset:0"
       d="m 43.039405,49.711632 0,-11.266807 0.178439,0.05303 c 0.61987,0.184217 2.253483,1.225562 3.698943,2.357884 l 0.903405,0.707696 0.29519,-0.342741 0.29519,-0.342742 -0.619448,-0.675903 c -1.743986,-1.902929 -2.953919,-3.792157 -3.336242,-5.209316 -0.135767,-0.50325 -0.168265,-0.855338 -0.170824,-1.850727 -0.0047,-1.822947 0.204552,-3.18788 1.094157,-7.137546 0.847525,-3.762842 0.97133,-4.340946 1.18039,-5.511772 0.342834,-1.920019 0.604716,-4.415006 0.604716,-5.761207 l 0,-0.622932 1.077241,0 c 0.651346,0 1.066789,-0.03 1.050805,-0.07589 -0.01454,-0.04174 -0.506752,-0.444912 -1.093807,-0.895943 L 47.130188,12.316665 46.958566,11.21013 C 46.555611,8.6120778 46.036786,6.5818549 45.530719,5.6228005 45.204221,5.0040496 44.726825,4.3565446 44.025086,3.5806691 l -0.52003,-0.574969 8.728761,0 8.72876,0 0,28.9863689 0,28.98637 -8.961586,0 -8.961586,0 0,-11.266807 z"
       id="path2995"
       inkscape:connector-curvature="0" />
    <path
       style="fill:#eeeeec;fill-opacity:1;fill-rule:nonzero;stroke:#555753;stroke-width:0.23791821;stroke-linecap:round;stroke-miterlimit:4;stroke-opacity:1;stroke-dasharray:none;stroke-dashoffset:0"
       d="m 23.054275,49.677323 0,-11.301115 0.181971,0 c 0.471685,0 2.270852,1.0979 3.933305,2.400207 l 0.90338,0.707677 0.3191,-0.319099 0.319099,-0.3191 -0.574101,-0.614742 c -1.637022,-1.752907 -2.880704,-3.639812 -3.339614,-5.066839 -0.142884,-0.444309 -0.186073,-0.800559 -0.216327,-1.784386 -0.05948,-1.934321 0.186911,-3.534371 1.288413,-8.366791 1.185256,-5.19986 1.545606,-7.541828 1.546337,-10.049867 l 2.71e-4,-0.929669 1.113139,-0.022 1.113138,-0.022 -1.106557,-0.851266 C 27.690975,12.488385 27.419066,12.235178 27.386121,12.067693 27.362388,11.947042 27.284288,11.455762 27.212566,10.97596 27.140843,10.496159 26.977869,9.6039653 26.850401,8.9933086 26.273997,6.2319404 25.852453,5.3026662 24.449043,3.6996283 l -0.607513,-0.6939282 8.175798,0 8.175797,0 -0.546336,0.62 c -1.572597,1.784633 -1.974948,2.694518 -2.583977,5.8434449 -0.15185,0.78513 -0.320426,1.748699 -0.374613,2.141264 l -0.09852,0.713755 -1.097317,0.832406 c -0.603524,0.457823 -1.097317,0.85931 -1.097317,0.892193 0,0.03288 0.474935,0.05979 1.05541,0.05979 l 1.055411,0 0.09482,1.645601 c 0.167521,2.907209 0.423466,4.452234 1.594306,9.624131 0.76009,3.357507 1.050611,4.928556 1.201036,6.494828 0.103472,1.077392 0.05778,2.317966 -0.110992,3.013631 -0.342768,1.412845 -1.642914,3.456857 -3.412525,5.364966 -0.289188,0.311821 -0.524831,0.597323 -0.523651,0.634449 0.0012,0.03712 0.127072,0.201879 0.27976,0.36612 l 0.277613,0.298621 0.929658,-0.728107 c 1.628261,-1.27525 3.205758,-2.240569 3.923463,-2.400887 l 0.218091,-0.04872 0,11.302626 0,11.302626 -8.961586,0 -8.961586,0 0,-11.301116 z"
       id="path2997"
       inkscape:connector-curvature="0" />
    <path
       style="fill:#eeeeec;fill-opacity:1;fill-rule:nonzero;stroke:#555753;stroke-width:0.23791821;stroke-linecap:round;stroke-miterlimit:4;stroke-opacity:1;stroke-dasharray:none;stroke-dashoffset:0"
       d="m 3.069145,31.992069 0,-28.9863689 8.689978,0 8.689977,0 -0.609932,0.6939282 c -1.616471,1.8390806 -2.085137,3.0790552 -2.772793,7.3361307 -0.103954,0.643545 -0.20882,1.202143 -0.233037,1.241326 -0.02422,0.03918 -0.527995,0.440528 -1.119507,0.891875 l -1.075475,0.820631 1.103185,0.02193 1.103184,0.02193 0.0474,1.405578 c 0.08793,2.607261 0.377674,4.452227 1.447537,9.217226 1.22193,5.442277 1.424903,6.740209 1.363884,8.721477 -0.03036,0.985885 -0.07352,1.342131 -0.216451,1.786577 -0.458911,1.427027 -1.702593,3.313932 -3.339614,5.066839 l -0.574102,0.614742 0.318373,0.318372 0.318372,0.318372 0.824801,-0.644934 c 1.163413,-0.909705 2.352624,-1.70845 3.147468,-2.114029 0.374527,-0.191106 0.709975,-0.347466 0.74544,-0.347466 0.03547,0 0.06448,5.085502 0.06448,11.301115 l 0,11.301116 -8.961586,0 -8.961586,0 0,-28.98637 z"
       id="path2999"
       inkscape:connector-curvature="0" />
  </g>
</svg>
