<?xml version="1.0" standalone="no"?>
<!DOCTYPE svg PUBLIC "-//W3C//DTD SVG 20010904//EN"
 "http://www.w3.org/TR/2001/REC-SVG-20010904/DTD/svg10.dtd">
<svg version="1.0" xmlns="http://www.w3.org/2000/svg"
 width="260.000000pt" height="260.000000pt" viewBox="0 0 260.000000 260.000000"
 preserveAspectRatio="xMidYMid meet">
<metadata>
Created by potrace 1.11, written by Peter Selinger 2001-2013
</metadata>
<g transform="translate(0.000000,260.000000) scale(0.100000,-0.100000)"
fill="#000000" stroke="none">
<path d="M1200 2560 c-199 -37 -378 -172 -468 -351 -67 -134 -82 -210 -82
-425 l0 -183 -47 -53 c-107 -121 -186 -279 -213 -427 -16 -88 -13 -276 5 -364
40 -195 111 -324 256 -463 121 -115 233 -181 395 -230 81 -25 103 -28 249 -27
133 0 173 3 240 21 378 104 654 427 683 800 21 267 -53 497 -221 688 l-42 48
-6 210 c-5 193 -8 218 -32 291 -71 214 -237 385 -432 445 -78 24 -215 34 -285
20z m278 -103 c181 -63 321 -222 373 -425 14 -57 19 -110 19 -219 l0 -143 -57
39 c-32 21 -73 46 -90 55 -32 16 -33 18 -33 84 0 127 -37 224 -119 314 -148
161 -389 163 -540 3 -82 -86 -121 -189 -121 -317 0 -66 -1 -68 -32 -84 -18 -9
-59 -34 -90 -55 l-58 -39 0 143 c0 111 5 162 20 222 59 231 238 404 460 445
71 14 193 3 268 -23z m-88 -269 c120 -37 208 -159 218 -302 l5 -69 -29 7
c-194 50 -434 48 -568 -3 l-29 -12 5 74 c14 223 199 365 398 305z m138 -438
c276 -78 504 -308 584 -587 32 -112 32 -324 0 -436 -67 -233 -232 -427 -453
-531 -246 -117 -554 -102 -790 36 -90 52 -250 209 -298 291 -90 154 -130 374
-100 557 28 175 99 310 234 446 132 134 278 211 459 244 83 15 281 4 364 -20z"/>
<path d="M1271 976 c-8 -9 -11 -78 -9 -226 3 -190 5 -214 21 -224 12 -8 22 -8
35 0 15 10 17 34 20 224 2 219 -1 240 -38 240 -10 0 -23 -6 -29 -14z"/>
</g>
</svg>
