<?xml version="1.0" encoding="UTF-8" standalone="no"?>
<!-- Created with Inkscape (http://www.inkscape.org/) -->

<svg
   xmlns:dc="http://purl.org/dc/elements/1.1/"
   xmlns:cc="http://creativecommons.org/ns#"
   xmlns:rdf="http://www.w3.org/1999/02/22-rdf-syntax-ns#"
   xmlns:svg="http://www.w3.org/2000/svg"
   xmlns="http://www.w3.org/2000/svg"
   xmlns:sodipodi="http://sodipodi.sourceforge.net/DTD/sodipodi-0.dtd"
   xmlns:inkscape="http://www.inkscape.org/namespaces/inkscape"
   width="512"
   height="512"
   viewBox="0 0 512 512"
   version="1.1"
   id="svg8"
   inkscape:version="0.92.2 5c3e80d, 2017-08-06"
   sodipodi:docname="drawing.svg"
   inkscape:export-filename="/home/yeison/Development/django-for-android/django-for-android/djangoforandroid/projects/mdl/android/static/icons/icon.png"
   inkscape:export-xdpi="96"
   inkscape:export-ydpi="96">
  <defs
     id="defs2" />
  <sodipodi:namedview
     id="base"
     pagecolor="#ffffff"
     bordercolor="#666666"
     borderopacity="1.0"
     inkscape:pageopacity="0.0"
     inkscape:pageshadow="2"
     inkscape:zoom="0.5"
     inkscape:cx="-55.00363"
     inkscape:cy="106.92191"
     inkscape:document-units="px"
     inkscape:current-layer="layer1"
     showgrid="false"
     inkscape:window-width="1914"
     inkscape:window-height="1023"
     inkscape:window-x="0"
     inkscape:window-y="31"
     inkscape:window-maximized="1"
     units="px"
     scale-x="1"
     inkscape:showpageshadow="false" />
  <metadata
     id="metadata5">
    <rdf:RDF>
      <cc:Work
         rdf:about="">
        <dc:format>image/svg+xml</dc:format>
        <dc:type
           rdf:resource="http://purl.org/dc/dcmitype/StillImage" />
        <dc:title />
      </cc:Work>
    </rdf:RDF>
  </metadata>
  <g
     inkscape:label="Layer 1"
     inkscape:groupmode="layer"
     id="layer1"
     transform="translate(0,-161.53332)">
    <g
       id="g836"
       transform="matrix(1.2190468,0,0,1.2190468,-56.075981,105.45752)"
       style="fill:#008cdb">
      <path
         id="path834"
         d="m 309.905,82.378 20.996,-30.485 c 1.247,-1.813 0.935,-4.192 -0.697,-5.318 -1.624,-1.114 -3.962,-0.564 -5.197,1.251 l -21.82,31.672 c -14.38,-5.668 -30.348,-8.818 -47.18,-8.818 -16.829,0 -32.801,3.15 -47.181,8.818 L 187.01,47.824 c -1.251,-1.805 -3.584,-2.363 -5.213,-1.249 -1.632,1.126 -1.936,3.505 -0.689,5.316 l 21,30.487 c -33.391,15.535 -56.811,45.058 -59.793,79.513 H 369.69 C 366.711,127.436 343.296,97.913 309.905,82.378 Z m -101.399,48.058 c -6.948,0 -12.58,-5.629 -12.58,-12.58 0,-6.951 5.627,-12.582 12.58,-12.582 6.944,0 12.575,5.629 12.575,12.582 0,6.944 -5.631,12.58 -12.575,12.58 z m 94.988,0 c -6.944,0 -12.576,-5.629 -12.576,-12.58 0,-6.952 5.632,-12.582 12.576,-12.582 6.952,0 12.583,5.631 12.583,12.582 10e-4,6.944 -5.631,12.58 -12.583,12.58 z M 127.713,305.571 c 0,14.007 -11.353,25.364 -25.364,25.364 -14.007,0 -25.364,-11.357 -25.364,-25.364 V 202.975 c 0,-14.007 11.357,-25.362 25.364,-25.362 14.011,0 25.364,11.355 25.364,25.362 z m 14.598,-127.175 v 185.299 c 0,11.002 8.921,19.925 19.929,19.925 h 23.572 v 57.016 c 0,14.011 11.353,25.364 25.364,25.364 14.007,0 25.364,-11.353 25.364,-25.364 V 383.62 h 38.924 v 57.016 c 0,14.011 11.353,25.364 25.364,25.364 14.007,0 25.364,-11.353 25.364,-25.364 V 383.62 h 23.572 c 11.008,0 19.925,-8.913 19.925,-19.925 V 178.396 Z m 241.976,127.175 c 0,14.007 11.357,25.364 25.364,25.364 14.011,0 25.364,-11.357 25.364,-25.364 V 202.975 c 0,-14.007 -11.353,-25.362 -25.364,-25.362 -14.007,0 -25.364,11.355 -25.364,25.362 z"
         inkscape:connector-curvature="0" />
    </g>
  </g>
</svg>
