#define cursors-map-point-001_width 32
#define cursors-map-point-001_height 32
#define cursors-map-point-001_hot_x 1
#define cursors-map-point-001_hot_y 1
static char cursors-map-point-001_bits[] = {
  0x0f, 0x00, 0x00, 0x00, 0x1f, 0x00, 0x00, 0x00, 0x3b, 0x00, 0x00, 0x00, 
  0x73, 0x00, 0x00, 0x00, 0xe3, 0x00, 0x00, 0x00, 0xc3, 0x01, 0x00, 0x00, 
  0x83, 0x03, 0x00, 0x00, 0x03, 0x07, 0x00, 0x00, 0x03, 0x0e, 0x00, 0x00, 
  0x03, 0x1c, 0x00, 0x00, 0x03, 0x38, 0x00, 0x00, 0x03, 0x70, 0x00, 0x00, 
  0x03, 0xe0, 0x00, 0x00, 0x03, 0xc0, 0x01, 0x00, 0x03, 0x80, 0x03, 0x00, 
  0x0b, 0x00, 0x07, 0x00, 0x03, 0x00, 0x0e, 0x00, 0x03, 0x00, 0x1c, 0x00, 
  0x13, 0x00, 0x38, 0x00, 0x03, 0x00, 0x30, 0x00, 0x0b, 0x00, 0x30, 0x00, 
  0x03, 0xc0, 0x3f, 0x00, 0x4b, 0xc0, 0x3f, 0x00, 0x83, 0x01, 0x03, 0x00, 
  0x8b, 0x01, 0x03, 0x00, 0xa3, 0x01, 0x03, 0x00, 0x83, 0x01, 0x03, 0x00, 
  0xff, 0x01, 0x03, 0x00, 0xff, 0x01, 0x03, 0x00, 0x80, 0x01, 0x03, 0x00, 
  0x80, 0xff, 0x03, 0x00, 0x80, 0xff, 0x03, 0x00 };
