#define cursors-wait-001_width 32
#define cursors-wait-001_height 32
#define cursors-wait-001_hot_x 1
#define cursors-wait-001_hot_y 1
static char cursors-wait-001_bits[] = {
  0x00, 0x00, 0x00, 0x00, 0x00, 0x00, 0x00, 0x00, 0x00, 0x00, 0x00, 0x00,
  0x00, 0x00, 0x00, 0x00, 0x00, 0xff, 0x3f, 0x00, 0x00, 0xff, 0x3f, 0x00,
  0x00, 0x03, 0x20, 0x00, 0x00, 0xfe, 0x1f, 0x00, 0x00, 0x0c, 0x0c, 0x00,
  0x00, 0x0c, 0x0c, 0x00, 0x00, 0x0c, 0x0c, 0x00, 0x00, 0x0c, 0x0c, 0x00,
  0x00, 0x0c, 0x0c, 0x00, 0x00, 0x18, 0x06, 0x00, 0x00, 0x30, 0x03, 0x00,
  0x00, 0xe0, 0x01, 0x00, 0x00, 0x30, 0x03, 0x00, 0x00, 0x18, 0x06, 0x00,
  0x00, 0x0c, 0x0c, 0x00, 0x00, 0x0c, 0x0c, 0x00, 0x00, 0x0c, 0x0c, 0x00,
  0x00, 0x0c, 0x0c, 0x00, 0x00, 0x0c, 0x0c, 0x00, 0x00, 0x0c, 0x0c, 0x00,
  0x00, 0xfe, 0x1f, 0x00, 0x00, 0x03, 0x20, 0x00, 0x00, 0xff, 0x3f, 0x00,
  0x00, 0xff, 0x3f, 0x00, 0x00, 0x00, 0x00, 0x00, 0x00, 0x00, 0x00, 0x00,
  0x00, 0x00, 0x00, 0x00, 0x00, 0x00, 0x00, 0x00, };
