#define cursors-retreat-mask-001_width 32
#define cursors-retreat-mask-001_height 32
#define cursors-retreat-mask-001_hot_x 1
#define cursors-retreat-mask-001_hot_y 1
static char cursors-retreat-mask-001_bits[] = {
  0x06, 0x00, 0x00, 0x00, 0x0e, 0x02, 0x00, 0x00, 0x1e, 0x07, 0x07, 0x00, 
  0x3e, 0x87, 0x0f, 0x01, 0xfe, 0x83, 0x9f, 0x03, 0xfe, 0xc3, 0x9f, 0x03, 
  0xfe, 0xcf, 0x9f, 0x03, 0xfe, 0xff, 0x8f, 0x03, 0x7e, 0xff, 0xcf, 0x03, 
  0x78, 0xfe, 0xff, 0x03, 0x00, 0xfc, 0xff, 0x01, 0x00, 0xf8, 0xff, 0x00, 
  0x00, 0xf0, 0x7f, 0x00, 0x00, 0xf0, 0x1f, 0x00, 0x00, 0xf0, 0x0f, 0x00, 
  0x00, 0xf0, 0x0f, 0x00, 0x00, 0xf0, 0x0f, 0x00, 0x00, 0xf8, 0x0f, 0x00, 
  0x00, 0xf8, 0x0f, 0x00, 0x00, 0xfc, 0x0f, 0x00, 0x00, 0xfe, 0x1f, 0x00, 
  0x00, 0x3e, 0x1f, 0x00, 0x00, 0x3f, 0x3e, 0x00, 0x00, 0x1f, 0x3e, 0x00, 
  0x80, 0x0f, 0x7c, 0x00, 0xc0, 0x07, 0x7c, 0x00, 0xe0, 0x03, 0x7c, 0x00, 
  0xe0, 0x01, 0xf8, 0x00, 0xe0, 0x01, 0xf8, 0x00, 0xc0, 0x00, 0xf0, 0x01, 
  0x00, 0x00, 0xe0, 0x00, 0x00, 0x00, 0x00, 0x00, };
