#define cursors-move-fast-001_width 32
#define cursors-move-fast-001_height 32
#define cursors-move-fast-001_hot_x 1
#define cursors-move-fast-001_hot_y 1
static char cursors-move-fast-001_bits[] = {
  0x06, 0x00, 0x00, 0x00, 0x0a, 0x00, 0x00, 0x00, 0x12, 0x00, 0x07, 0x00, 
  0x22, 0x80, 0x08, 0x00, 0x42, 0x80, 0x10, 0x00, 0x82, 0x40, 0x10, 0x00, 
  0xea, 0xc0, 0x10, 0x00, 0x4a, 0x30, 0x08, 0x00, 0x4e, 0x0c, 0x08, 0x01, 
  0x78, 0x02, 0x90, 0x02, 0x00, 0x01, 0x60, 0x02, 0x00, 0x39, 0x20, 0x01, 
  0x00, 0x15, 0x00, 0x01, 0x00, 0x15, 0x84, 0x00, 0x80, 0x14, 0x4c, 0x00, 
  0x00, 0x13, 0x34, 0x00, 0x00, 0x10, 0x04, 0x00, 0x00, 0x08, 0x08, 0x00, 
  0x00, 0x08, 0x08, 0x00, 0x60, 0x84, 0x09, 0x00, 0x90, 0xc2, 0x10, 0x00, 
  0x20, 0x23, 0x11, 0x00, 0x40, 0x20, 0x22, 0x00, 0x40, 0x10, 0x22, 0x00, 
  0x80, 0x08, 0x44, 0x00, 0x00, 0x07, 0x44, 0x00, 0x00, 0x00, 0x44, 0x00, 
  0x00, 0x00, 0x98, 0x00, 0x00, 0x00, 0x88, 0x00, 0x00, 0x00, 0x10, 0x01, 
  0x00, 0x00, 0xe0, 0x00, 0x00, 0x00, 0x00, 0x00, };
