#define cursors-map-attack-mask-001_width 32
#define cursors-map-attack-mask-001_height 32
#define cursors-map-attack-mask-001_hot_x 16
#define cursors-map-attack-mask-001_hot_y 16
static char cursors-mapp-attack-mask_bits[] = {
0x00, 0x00, 0x00, 0x00, 0x00, 0x00, 0x00, 0x00, 0x00, 0xc0, 0x01, 0x00,
0x00, 0xc0, 0x01, 0x00, 0x00, 0xc0, 0x01, 0x00, 0x00, 0xc0, 0x01, 0x00,
0x00, 0xf0, 0x07, 0x00, 0x00, 0xfe, 0x3f, 0x00, 0x00, 0xff, 0x7f, 0x00,
0x80, 0xff, 0xff, 0x00, 0xc0, 0xc7, 0xf1, 0x01, 0xe0, 0xc3, 0xe1, 0x03,
0xe0, 0xc1, 0xc1, 0x03, 0xf0, 0x00, 0x80, 0x07, 0xf0, 0x00, 0x80, 0x07,
0xfe, 0x03, 0xe0, 0x3f, 0xfe, 0x03, 0xe0, 0x3f, 0xfe, 0x03, 0xe0, 0x3f,
0xf0, 0x00, 0x80, 0x07, 0xf0, 0x00, 0x80, 0x07, 0xe0, 0xc1, 0xc1, 0x03,
0xe0, 0xc3, 0xe1, 0x03, 0xc0, 0xc7, 0xf1, 0x01, 0x80, 0xff, 0xff, 0x00,
0x00, 0xff, 0x7f, 0x00, 0x00, 0xfe, 0x3f, 0x00, 0x00, 0xf0, 0x07, 0x00,
0x00, 0xc0, 0x01, 0x00, 0x00, 0xc0, 0x01, 0x00, 0x00, 0xc0, 0x01, 0x00,
0x00, 0xc0, 0x01, 0x00, 0x00, 0x00, 0x00, 0x00 };