#define cursors-map-turn-mask-001_width 32
#define cursors-map-turn-mask-001_height 32
#define cursors-map-turn-mask-001_hot_x 16
#define cursors-map-turn-mask-001_hot_y 16
static char cursors-map-turn-mask-001_bits[] = {
  0x00, 0x00, 0x00, 0x00, 0x00, 0x00, 0x00, 0x00, 0x00, 0xe0, 0x0f, 0x00, 
  0x00, 0xfc, 0x7f, 0x00, 0x00, 0xfe, 0xff, 0x00, 0x80, 0xff, 0xff, 0x03, 
  0xc0, 0xff, 0xff, 0x07, 0xc0, 0x3f, 0xf8, 0x07, 0xe4, 0x0f, 0xe0, 0x0f, 
  0xec, 0x07, 0xc0, 0x1f, 0xfc, 0x03, 0x80, 0x1f, 0xf8, 0x01, 0x00, 0x1f, 
  0xf8, 0x1f, 0x00, 0x3f, 0xf0, 0x0f, 0x00, 0x3e, 0xf0, 0x01, 0x00, 0x3e, 
  0x00, 0x00, 0x00, 0x3e, 0x00, 0x00, 0x00, 0x3e, 0x00, 0x00, 0x00, 0x3e, 
  0x00, 0x00, 0x00, 0x3f, 0x00, 0x00, 0x00, 0x1f, 0x80, 0x05, 0x80, 0x1f, 
  0x00, 0x04, 0xc0, 0x1f, 0x00, 0x0b, 0xe0, 0x0f, 0xc0, 0x3c, 0xf8, 0x07, 
  0x00, 0xff, 0xff, 0x03, 0x00, 0xff, 0xff, 0x01, 0x00, 0xfe, 0xff, 0x00, 
  0x00, 0xfc, 0x3f, 0x00, 0x00, 0xe0, 0x0f, 0x00, 0x00, 0x00, 0x00, 0x00, 
  0x00, 0x00, 0x00, 0x00, 0x00, 0x00, 0x00, 0x00, };
