#define cursors-move-001_width 32
#define cursors-move-001_height 32
#define cursors-move-001_hot_x 1
#define cursors-move-001_hot_y 1
static char cursors-move-001_bits[] = {
  0x06, 0x00, 0x00, 0x00, 0x0a, 0x00, 0x00, 0x00, 0x12, 0x00, 0x07, 0x00, 
  0x22, 0x80, 0x08, 0x00, 0x42, 0x80, 0x10, 0x00, 0x82, 0x40, 0x10, 0x00, 
  0xea, 0xc0, 0x10, 0x00, 0x4a, 0x30, 0x08, 0x00, 0x4e, 0x08, 0x08, 0x00, 
  0x78, 0x04, 0x10, 0x00, 0x00, 0x04, 0x20, 0x00, 0x00, 0x02, 0x20, 0x00, 
  0x00, 0x01, 0x40, 0x00, 0x00, 0x19, 0x84, 0x00, 0x00, 0x19, 0x8c, 0x01, 
  0x00, 0x15, 0x34, 0x02, 0x00, 0x15, 0x44, 0x04, 0x00, 0x0d, 0x88, 0x03, 
  0x00, 0x0a, 0x08, 0x00, 0x00, 0x84, 0x09, 0x00, 0x00, 0xc2, 0x10, 0x00, 
  0x00, 0x22, 0x11, 0x00, 0x00, 0x21, 0x22, 0x00, 0x00, 0x11, 0x22, 0x00, 
  0x80, 0x08, 0x44, 0x00, 0x40, 0x04, 0x44, 0x00, 0xa0, 0x02, 0x44, 0x00, 
  0x20, 0x01, 0x98, 0x00, 0xa0, 0x01, 0x88, 0x00, 0xc0, 0x00, 0x10, 0x01, 
  0x00, 0x00, 0xe0, 0x00, 0x00, 0x00, 0x00, 0x00, };
