#define cursors-map-point-002_width 48
#define cursors-map-point-002_height 48
#define cursors-map-point-002_hot_x 24
#define cursors-map-point-002_hot_y 24
static char cursors-map-point-002_bits[] = {
  0x00, 0x00, 0x80, 0x01, 0x00, 0x00, 0x00, 0x00, 0x60, 0x06, 0x00, 0x00, 
  0x00, 0x00, 0x18, 0x18, 0x00, 0x00, 0x00, 0x00, 0x86, 0x61, 0x00, 0x00, 
  0x00, 0x80, 0x61, 0x86, 0x01, 0x00, 0x00, 0x60, 0x18, 0x18, 0x06, 0x00, 
  0x00, 0x18, 0x06, 0x60, 0x18, 0x00, 0x00, 0x86, 0x01, 0x80, 0x61, 0x00, 
  0x80, 0x61, 0x00, 0x00, 0x86, 0x01, 0x60, 0x18, 0x00, 0x00, 0x18, 0x06, 
  0x18, 0x06, 0x00, 0x00, 0x60, 0x18, 0x86, 0x01, 0x00, 0x00, 0x80, 0x61, 
  0x61, 0x00, 0x00, 0x00, 0x00, 0x86, 0x19, 0x00, 0x00, 0x00, 0x00, 0x98, 
  0x09, 0x00, 0x00, 0x00, 0x00, 0x90, 0x09, 0x00, 0x00, 0x00, 0x00, 0x90, 
  0x09, 0x00, 0x00, 0x00, 0x00, 0x90, 0x09, 0x00, 0x00, 0x00, 0x00, 0x90, 
  0x09, 0x00, 0x00, 0x00, 0x00, 0x90, 0x09, 0x00, 0x00, 0x00, 0x00, 0x90, 
  0x09, 0x00, 0x00, 0x00, 0x00, 0x90, 0x09, 0x00, 0x00, 0x00, 0x00, 0x90, 
  0x09, 0x00, 0x00, 0x00, 0x00, 0x90, 0x09, 0x00, 0x00, 0x03, 0x00, 0x90, 
  0x09, 0x00, 0x00, 0x05, 0x00, 0x90, 0x09, 0x00, 0x00, 0x09, 0x00, 0x90, 
  0x09, 0x00, 0x00, 0x11, 0x00, 0x90, 0x09, 0x00, 0x00, 0x21, 0x00, 0x90, 
  0x09, 0x00, 0x00, 0x41, 0x00, 0x90, 0x09, 0x00, 0x00, 0x79, 0x00, 0x90, 
  0x09, 0x00, 0x00, 0x05, 0x00, 0x90, 0x09, 0x00, 0x00, 0x03, 0x00, 0x90, 
  0x09, 0x00, 0x00, 0x00, 0x00, 0x90, 0x09, 0x00, 0x00, 0x00, 0x00, 0x90, 
  0x19, 0x00, 0x00, 0x00, 0x00, 0x98, 0x61, 0x00, 0x00, 0x00, 0x00, 0x86, 
  0x86, 0x01, 0x00, 0x00, 0x80, 0x61, 0x18, 0x06, 0x00, 0x00, 0x60, 0x18, 
  0x60, 0x18, 0x00, 0x00, 0x18, 0x06, 0x80, 0x61, 0x00, 0x00, 0x86, 0x01, 
  0x00, 0x86, 0x01, 0x80, 0x61, 0x00, 0x00, 0x18, 0x06, 0x60, 0x18, 0x00, 
  0x00, 0x60, 0x18, 0x18, 0x06, 0x00, 0x00, 0x80, 0x61, 0x86, 0x01, 0x00, 
  0x00, 0x00, 0x86, 0x61, 0x00, 0x00, 0x00, 0x00, 0x18, 0x18, 0x00, 0x00, 
  0x00, 0x00, 0x60, 0x06, 0x00, 0x00, 0x00, 0x00, 0x80, 0x01, 0x00, 0x00, 
  };
