#define cursors-move-fast-mask-001_width 32
#define cursors-move-fast-mask-001_height 32
#define cursors-move-fast-mask-001_hot_x 1
#define cursors-move-fast-mask-001_hot_y 1
static char cursors-move-fast-mask-001_bits[] = {
  0x06, 0x00, 0x00, 0x00, 0x0e, 0x00, 0x00, 0x00, 0x1e, 0x00, 0x07, 0x00, 
  0x3e, 0x80, 0x0f, 0x00, 0x7e, 0x80, 0x1f, 0x00, 0xfe, 0xc0, 0x1f, 0x00, 
  0xfe, 0xc0, 0x1f, 0x00, 0x7e, 0xf0, 0x0f, 0x00, 0x7e, 0xfc, 0x0f, 0x01, 
  0x78, 0xfe, 0x9f, 0x03, 0x00, 0xff, 0xff, 0x03, 0x00, 0xff, 0xff, 0x01, 
  0x00, 0xf7, 0xff, 0x01, 0x00, 0xf7, 0xff, 0x00, 0x80, 0xf7, 0x7f, 0x00, 
  0x00, 0xf3, 0x37, 0x00, 0x00, 0xf0, 0x07, 0x00, 0x00, 0xf8, 0x0f, 0x00, 
  0x00, 0xf8, 0x0f, 0x00, 0x60, 0xfc, 0x0f, 0x00, 0xf0, 0xfe, 0x1f, 0x00, 
  0xe0, 0x3f, 0x1f, 0x00, 0xc0, 0x3f, 0x3e, 0x00, 0xc0, 0x1f, 0x3e, 0x00, 
  0x80, 0x0f, 0x7c, 0x00, 0x00, 0x07, 0x7c, 0x00, 0x00, 0x00, 0x7c, 0x00, 
  0x00, 0x00, 0xf8, 0x00, 0x00, 0x00, 0xf8, 0x00, 0x00, 0x00, 0xf0, 0x01, 
  0x00, 0x00, 0xe0, 0x00, 0x00, 0x00, 0x00, 0x00, };
