#define cursors-wait-mask-001_width 32
#define cursors-wait-mask-001_height 32
#define cursors-wait-mask-001_hot_x 1
#define cursors-wait-mask-001_hot_y 1
static char cursors-wait-mask-001_bits[] = {
  0x00, 0x00, 0x00, 0x00, 0x00, 0x00, 0x00, 0x00, 0x00, 0x00, 0x00, 0x00,
  0x00, 0x00, 0x00, 0x00, 0x00, 0xff, 0x3f, 0x00, 0x00, 0xff, 0x3f, 0x00,
  0x00, 0xff, 0x3f, 0x00, 0x00, 0xfe, 0x1f, 0x00, 0x00, 0xfc, 0x0f, 0x00,
  0x00, 0xfc, 0x0f, 0x00, 0x00, 0xfc, 0x0f, 0x00, 0x00, 0xfc, 0x0f, 0x00,
  0x00, 0xfc, 0x0f, 0x00, 0x00, 0xf8, 0x07, 0x00, 0x00, 0xf0, 0x03, 0x00,
  0x00, 0xe0, 0x01, 0x00, 0x00, 0xf0, 0x03, 0x00, 0x00, 0xf8, 0x07, 0x00,
  0x00, 0xfc, 0x0f, 0x00, 0x00, 0xfc, 0x0f, 0x00, 0x00, 0xfc, 0x0f, 0x00,
  0x00, 0xfc, 0x0f, 0x00, 0x00, 0xfc, 0x0f, 0x00, 0x00, 0xfc, 0x0f, 0x00,
  0x00, 0xfe, 0x1f, 0x00, 0x00, 0xff, 0x3f, 0x00, 0x00, 0xff, 0x3f, 0x00,
  0x00, 0xff, 0x3f, 0x00, 0x00, 0x00, 0x00, 0x00, 0x00, 0x00, 0x00, 0x00,
  0x00, 0x00, 0x00, 0x00, 0x00, 0x00, 0x00, 0x00, };
