#define cursors-cavalry-001_width 40
#define cursors-cavalry-001_height 65
#define cursors-cavalry-001_hot_x 1
#define cursors-cavalry-001_hot_y 1

static char cursors-cavalry-001_bits[] = {
  0x06, 0x00, 0x00, 0x00, 0x00, 0x0a, 0x00, 0x00, 0x00, 0x00, 0x12, 0x00, 
  0x1e, 0x00, 0x00, 0x22, 0x80, 0x1f, 0x00, 0x00, 0x42, 0x80, 0x37, 0x00, 
  0x00, 0x82, 0x80, 0x2f, 0x00, 0x00, 0xea, 0xc0, 0x5d, 0x00, 0x00, 0x4a, 
  0xe0, 0xff, 0x00, 0x00, 0x4e, 0xe0, 0xff, 0x01, 0x00, 0x78, 0xe0, 0xff, 
  0x01, 0x00, 0x00, 0xe0, 0xcf, 0x01, 0x00, 0x00, 0xe0, 0x1f, 0x00, 0x00, 
  0x00, 0xe0, 0x1f, 0x00, 0x00, 0x00, 0xf0, 0x3f, 0x60, 0x00, 0x00, 0xf0, 
  0x3f, 0xf0, 0x00, 0x00, 0xf0, 0xff, 0x98, 0x01, 0x00, 0xf0, 0x7f, 0x1d, 
  0x03, 0x00, 0xf0, 0xff, 0x0e, 0x02, 0x00, 0xf0, 0xff, 0x0f, 0x06, 0x00, 
  0xf0, 0xff, 0xff, 0x3f, 0x00, 0xf0, 0xff, 0xff, 0x00, 0x00, 0xf0, 0xff, 
  0x0f, 0x00, 0x00, 0xf0, 0xfb, 0x07, 0x00, 0x00, 0xf0, 0xff, 0x03, 0x00, 
  0x00, 0xe0, 0xe7, 0x01, 0x00, 0x00, 0xf0, 0x8f, 0x01, 0x00, 0x00, 0xf0, 
  0xef, 0x01, 0x00, 0x00, 0xf8, 0xdf, 0x00, 0x00, 0x00, 0xf8, 0xff, 0x00, 
  0x00, 0x00, 0xf8, 0xff, 0x00, 0x00, 0x00, 0xfc, 0x7f, 0x00, 0x00, 0x00, 
  0xfc, 0x7f, 0x00, 0x00, 0x00, 0xfe, 0x3f, 0x00, 0x00, 0x00, 0xbf, 0x3f, 
  0x00, 0x00, 0x80, 0x7f, 0x1e, 0x00, 0x00, 0x80, 0xff, 0x0d, 0x00, 0x00, 
  0xc0, 0xf7, 0x03, 0x00, 0x00, 0xc0, 0xf7, 0x03, 0x00, 0x00, 0xc0, 0xdf, 
  0x03, 0x00, 0x00, 0xc0, 0xff, 0x01, 0x00, 0x00, 0xe0, 0xff, 0x01, 0x00, 
  0x00, 0xe0, 0xbf, 0x03, 0x00, 0x00, 0xf0, 0xbf, 0x03, 0x00, 0x00, 0xf8, 
  0xbf, 0x03, 0x00, 0x00, 0xfc, 0xcf, 0x07, 0x00, 0x00, 0xfe, 0x7f, 0x07, 
  0x00, 0x00, 0xde, 0xff, 0x07, 0x00, 0x00, 0x9e, 0xff, 0x03, 0x00, 0x00, 
  0x1e, 0xff, 0x03, 0x00, 0x00, 0x1e, 0xff, 0x01, 0x00, 0x00, 0x9e, 0xe7, 
  0x01, 0x00, 0x00, 0x9e, 0xc3, 0x01, 0x00, 0x00, 0xbe, 0xc3, 0x01, 0x00, 
  0x00, 0xbe, 0xe1, 0x01, 0x00, 0x00, 0xae, 0xe3, 0x00, 0x00, 0x00, 0x9c, 
  0xe3, 0x00, 0x00, 0x00, 0x9e, 0xe3, 0x00, 0x00, 0x00, 0x1c, 0xe3, 0x00, 
  0x00, 0x00, 0x18, 0xc7, 0x00, 0x00, 0x00, 0x08, 0xcc, 0x00, 0x00, 0x00, 
  0x08, 0x80, 0x01, 0x00, 0x00, 0x10, 0x00, 0x03, 0x00, 0x00, 0x00, 0x00, 
  0x02, 0x00, 0x00, 0x00, 0x00, 0x0c, 0x00, 0x00, 0x00, 0x00, 0x00, 0x00, 
  0x00, };
