#define cursors-map-point-mask-002_width 48
#define cursors-map-point-mask-002_height 48
static char cursors-map-point-mask-002_bits[] = {
  0x00, 0x00, 0x80, 0x01, 0x00, 0x00, 0x00, 0x00, 0xe0, 0x07, 0x00, 0x00, 
  0x00, 0x00, 0xf8, 0x1f, 0x00, 0x00, 0x00, 0x00, 0xfe, 0x7f, 0x00, 0x00, 
  0x00, 0x80, 0x7f, 0xfe, 0x01, 0x00, 0x00, 0xe0, 0x1f, 0xf8, 0x07, 0x00, 
  0x00, 0xf8, 0x07, 0xe0, 0x1f, 0x00, 0x00, 0xfe, 0x01, 0x80, 0x7f, 0x00, 
  0x80, 0x7f, 0x00, 0x00, 0xfe, 0x01, 0xe0, 0x1f, 0x00, 0x00, 0xf8, 0x07, 
  0xf8, 0x07, 0x00, 0x00, 0xe0, 0x1f, 0xfe, 0x01, 0x00, 0x00, 0x80, 0x7f, 
  0x7f, 0x00, 0x00, 0x00, 0x00, 0xfe, 0x1f, 0x00, 0x00, 0x00, 0x00, 0xf8, 
  0x0f, 0x00, 0x00, 0x00, 0x00, 0xf0, 0x0f, 0x00, 0x00, 0x00, 0x00, 0xf0, 
  0x0f, 0x00, 0x00, 0x00, 0x00, 0xf0, 0x0f, 0x00, 0x00, 0x00, 0x00, 0xf0, 
  0x0f, 0x00, 0x00, 0x00, 0x00, 0xf0, 0x0f, 0x00, 0x00, 0x00, 0x00, 0xf0, 
  0x0f, 0x00, 0x00, 0x00, 0x00, 0xf0, 0x0f, 0x00, 0x00, 0x00, 0x00, 0xf0, 
  0x0f, 0x00, 0x00, 0x00, 0x00, 0xf0, 0x0f, 0x00, 0x00, 0x03, 0x00, 0xf0, 
  0x0f, 0x00, 0x00, 0x07, 0x00, 0xf0, 0x0f, 0x00, 0x00, 0x0f, 0x00, 0xf0, 
  0x0f, 0x00, 0x00, 0x1f, 0x00, 0xf0, 0x0f, 0x00, 0x00, 0x3f, 0x00, 0xf0, 
  0x0f, 0x00, 0x00, 0x7f, 0x00, 0xf0, 0x0f, 0x00, 0x00, 0x7f, 0x00, 0xf0, 
  0x0f, 0x00, 0x00, 0x07, 0x00, 0xf0, 0x0f, 0x00, 0x00, 0x03, 0x00, 0xf0, 
  0x0f, 0x00, 0x00, 0x00, 0x00, 0xf0, 0x0f, 0x00, 0x00, 0x00, 0x00, 0xf0, 
  0x1f, 0x00, 0x00, 0x00, 0x00, 0xf8, 0x7f, 0x00, 0x00, 0x00, 0x00, 0xfe, 
  0xfe, 0x01, 0x00, 0x00, 0x80, 0x7f, 0xf8, 0x07, 0x00, 0x00, 0xe0, 0x1f, 
  0xe0, 0x1f, 0x00, 0x00, 0xf8, 0x07, 0x80, 0x7f, 0x00, 0x00, 0xfe, 0x01, 
  0x00, 0xfe, 0x01, 0x80, 0x7f, 0x00, 0x00, 0xf8, 0x07, 0xe0, 0x1f, 0x00, 
  0x00, 0xe0, 0x1f, 0xf8, 0x07, 0x00, 0x00, 0x80, 0x7f, 0xfe, 0x01, 0x00, 
  0x00, 0x00, 0xfe, 0x7f, 0x00, 0x00, 0x00, 0x00, 0xf8, 0x1f, 0x00, 0x00, 
  0x00, 0x00, 0xe0, 0x07, 0x00, 0x00, 0x00, 0x00, 0x80, 0x01, 0x00, 0x00, 
  };
