#define cursors-map-attack-001_width 32
#define cursors-map-attack-001_height 32
#define cursors-map-attack-001_hot_x 16
#define cursors-map-attack-001_hot_y 16
static char cursors-map-attack-001_bits[] = {
   0x00, 0x00, 0x00, 0x00, 0x00, 0x00, 0x00, 0x00, 0x00, 0xc0, 0x01, 0x00,
   0x00, 0x40, 0x01, 0x00, 0x00, 0x40, 0x01, 0x00, 0x00, 0x40, 0x01, 0x00,
   0x00, 0x70, 0x07, 0x00, 0x00, 0x1e, 0x3c, 0x00, 0x00, 0x63, 0x63, 0x00,
   0x80, 0x7d, 0xdf, 0x00, 0xc0, 0x46, 0xb1, 0x01, 0x60, 0x43, 0x61, 0x03,
   0xa0, 0xc1, 0xc1, 0x02, 0xb0, 0x00, 0x80, 0x06, 0xd0, 0x00, 0x80, 0x05,
   0xde, 0x03, 0xe0, 0x3d, 0x02, 0x02, 0x20, 0x20, 0xde, 0x03, 0xe0, 0x3d,
   0xd0, 0x00, 0x80, 0x05, 0xb0, 0x00, 0x80, 0x06, 0xa0, 0xc1, 0xc1, 0x02,
   0x60, 0x43, 0x61, 0x03, 0xc0, 0x46, 0xb1, 0x01, 0x80, 0x7d, 0xdf, 0x00,
   0x00, 0x63, 0x63, 0x00, 0x00, 0x1e, 0x3c, 0x00, 0x00, 0x70, 0x07, 0x00,
   0x00, 0x40, 0x01, 0x00, 0x00, 0x40, 0x01, 0x00, 0x00, 0x40, 0x01, 0x00,
   0x00, 0xc0, 0x01, 0x00, 0x00, 0x00, 0x00, 0x00 };
