#define cursors-map-turn-001_width 32
#define cursors-map-turn-001_height 32
#define cursors-map-turn-001_hot_x 16
#define cursors-map-turn-001_hot_y 16
static char cursors-map-turn-001_bits[] = {
  0x00, 0x00, 0x00, 0x00, 0x00, 0x00, 0x00, 0x00, 0x00, 0xe0, 0x0f, 0x00, 
  0x00, 0xfc, 0x7f, 0x00, 0x00, 0xfe, 0xff, 0x00, 0x80, 0xff, 0xdf, 0x03, 
  0xc0, 0xff, 0x3f, 0x07, 0xc0, 0x3f, 0x78, 0x06, 0xe4, 0x0f, 0xe0, 0x0c, 
  0xec, 0x07, 0xc0, 0x18, 0xfc, 0x03, 0x80, 0x11, 0xf8, 0x01, 0x00, 0x11, 
  0xf8, 0x1f, 0x00, 0x33, 0xf0, 0x0f, 0x00, 0x22, 0xf0, 0x01, 0x00, 0x22, 
  0x00, 0x00, 0x00, 0x22, 0x00, 0x00, 0x00, 0x22, 0x00, 0x00, 0x00, 0x22, 
  0x00, 0x00, 0x00, 0x21, 0x00, 0x00, 0x00, 0x11, 0x80, 0x04, 0x80, 0x10, 
  0x00, 0x00, 0x40, 0x10, 0x00, 0x09, 0x20, 0x08, 0x40, 0x34, 0x18, 0x04, 
  0x00, 0xc0, 0x07, 0x02, 0x00, 0x01, 0x00, 0x01, 0x00, 0x02, 0xc0, 0x00, 
  0x00, 0x1c, 0x30, 0x00, 0x00, 0xe0, 0x0f, 0x00, 0x00, 0x00, 0x00, 0x00, 
  0x00, 0x00, 0x00, 0x00, 0x00, 0x00, 0x00, 0x00, };
